<?xml version="1.0" encoding="UTF-8" standalone="no"?>
<svg width="38px" height="20px" viewBox="0 0 38 20" version="1.1" xmlns="http://www.w3.org/2000/svg" xmlns:xlink="http://www.w3.org/1999/xlink">
    <!-- Generator: Sketch 40.2 (33826) - http://www.bohemiancoding.com/sketch -->
    <title>noun_659760_cc</title>
    <desc>Created with Sketch.</desc>
    <defs></defs>
    <g id="Web-design" stroke="none" stroke-width="1" fill="none" fill-rule="evenodd">
        <g id="Ressources" transform="translate(-327.000000, -2217.000000)" fill="#FFFFFF">
            <g id="noun_659760_cc" transform="translate(327.000000, 2217.000000)">
                <g id="Group">
                    <g transform="translate(0.539007, 0.000000)" id="Shape">
                        <path d="M36.2781688,9.53407312 C32.1630113,3.72436129 25.4524,0.255767742 18.3266993,0.255767742 C11.2019149,0.255767742 4.49084539,3.72390538 0.374313475,9.53407312 L0.0219914894,10.0310194 L0.374313475,10.5279656 C4.49084539,16.3367656 11.2019149,19.8044473 18.3266993,19.8044473 C25.4514837,19.8044473 32.1625532,16.3367656 36.2781688,10.5279656 L36.6304908,10.0310194 L36.2781688,9.53407312 L36.2781688,9.53407312 Z M18.3276156,18.0587527 C13.8780043,18.0587527 10.2590298,14.4570323 10.2590298,10.0291957 C10.2590298,5.60272688 13.8780043,2.00100645 18.3276156,2.00100645 C22.7767688,2.00100645 26.3966596,5.60227097 26.3966596,10.0291957 C26.3966596,14.4570323 22.7767688,18.0587527 18.3276156,18.0587527 L18.3276156,18.0587527 Z M2.15516596,10.0310194 C4.51329504,6.90937634 7.70664255,4.57509677 11.3008766,3.24428387 C9.58691489,5.00137634 8.52536738,7.39310108 8.52536738,10.0291957 C8.52536738,12.667114 9.58691489,15.0588387 11.3027092,16.816843 C7.70710071,15.4869419 4.51375319,13.1522065 2.15516596,10.0310194 L2.15516596,10.0310194 Z M25.3538965,16.8159312 C27.0687745,15.0583828 28.130322,12.6662022 28.130322,10.0291957 C28.130322,7.39310108 27.0696908,5.00274409 25.3557291,3.2451957 C28.9485887,4.5760086 32.1401035,6.91074409 34.4973163,10.0310194 C32.1401035,13.1517505 28.9476723,15.4851183 25.3538965,16.8159312 L25.3538965,16.8159312 Z"></path>
                        <path d="M21.5928936,8.69655914 C20.3654936,8.69655914 19.3694624,7.70540215 19.3694624,6.48355269 C19.3694624,5.724 19.7552298,5.05426237 20.3421277,4.65579355 C19.7185773,4.41005591 19.0395901,4.27100215 18.3280738,4.27100215 C15.2969135,4.27100215 12.8393645,6.71698065 12.8393645,9.73285161 C12.8393645,12.7496344 15.2973716,15.1956129 18.3280738,15.1956129 C21.3596922,15.1956129 23.8176993,12.7496344 23.8176993,9.73285161 C23.8176993,9.02436129 23.6779617,8.35006452 23.4310156,7.72910968 C23.0301291,8.31267957 22.3570979,8.69655914 21.5928936,8.69655914 L21.5928936,8.69655914 Z"></path>
                    </g>
                </g>
            </g>
        </g>
    </g>
</svg>