<?xml version="1.0" encoding="UTF-8" standalone="no"?>
<svg width="38px" height="33px" viewBox="0 0 38 33" version="1.1" xmlns="http://www.w3.org/2000/svg" xmlns:xlink="http://www.w3.org/1999/xlink">
    <!-- Generator: Sketch 40.2 (33826) - http://www.bohemiancoding.com/sketch -->
    <title>noun_621451_cc</title>
    <desc>Created with Sketch.</desc>
    <defs></defs>
    <g id="Web-design" stroke="none" stroke-width="1" fill="none" fill-rule="evenodd">
        <g id="Ressources" transform="translate(-393.000000, -2216.000000)" fill="#FFFFFF">
            <g id="noun_621451_cc" transform="translate(393.000000, 2216.000000)">
                <g id="Group">
                    <path d="M37.6365,9.7685 L37.1905,9.361 C36.1895,8.4455 27.3175,0.41 24.1305,0.1245 C23.9495,0.1085 23.7695,0.1 23.595,0.1 C22.066,0.1 21.0445,0.727 20.143,1.2805 C19.758,1.5165 19.3915,1.7415 18.9985,1.916 C18.6065,1.742 18.24,1.517 17.856,1.2815 C16.9545,0.7285 15.933,0.1015 14.404,0.1015 C14.2295,0.1015 14.0495,0.11 13.8685,0.126 C10.681,0.4115 1.8095,8.4465 0.8085,9.362 L0.3625,9.769 L0.7545,10.2285 C1.588,11.2055 8.996,19.7825 12.453,20.071 C12.8145,20.1015 13.19,20.1345 13.5775,20.169 C15.009,20.296 16.6105,20.4385 18.279,20.4875 L18.279,20.505 L18.904,20.505 L18.9745,20.5035 L19.093,20.5055 L19.7195,20.5 L19.7195,20.486 C19.9835,20.478 20.2595,20.466 20.5415,20.453 C21.813,22.9525 24.036,24.789 26.702,25.3205 L26.702,32.9 L27.952,32.9 L27.952,24.241 L27.4075,24.17 C24.8785,23.842 22.757,22.143 21.5955,19.773 L21.492,19.548 C21.353,19.244 21.231,18.9335 21.1255,18.618 C21.12,18.602 21.115,18.586 21.11,18.5695 C21.069,18.445 21.032,18.3195 20.9965,18.1935 C20.9835,18.147 20.97,18.1 20.958,18.0535 C20.931,17.952 20.9065,17.8495 20.8835,17.747 C20.872,17.695 20.8585,17.6435 20.8475,17.591 C20.8185,17.4535 20.793,17.3145 20.77,17.175 C20.759,17.1085 20.7505,17.041 20.7405,16.9745 C20.7285,16.888 20.716,16.801 20.7065,16.714 C20.6985,16.647 20.692,16.579 20.6855,16.5115 C20.676,16.415 20.669,16.3185 20.6625,16.221 C20.659,16.1645 20.6545,16.108 20.652,16.051 C20.6445,15.8955 20.64,15.74 20.64,15.583 C20.64,15.3625 20.6495,15.1425 20.6645,14.923 C20.668,14.8725 20.6735,14.823 20.6775,14.773 C20.693,14.591 20.712,14.4095 20.738,14.2285 C20.743,14.193 20.7485,14.157 20.7535,14.1215 C20.823,13.6725 20.9225,13.227 21.0555,12.7895 L21.1025,12.634 C21.2565,12.1565 21.445,11.6925 21.6735,11.2495 L26.5105,11.2495 L34.912,11.2495 C35.5885,12.564 35.944,14.0545 35.944,15.5825 C35.944,19.978 33.0345,23.6695 29.1765,24.1695 L28.632,24.2405 L28.632,32.9 L29.882,32.9 L29.882,25.3205 C34.0875,24.482 37.194,20.399 37.194,15.583 C37.194,14.088 36.8865,12.6255 36.308,11.2915 C36.881,10.6515 37.227,10.247 37.244,10.228 L37.6365,9.7685 L37.6365,9.7685 Z M20.938,10 L20.7585,10.316 C20.455,10.85 20.2045,11.414 20,11.996 C19.789,12.0005 19.574,12.004 19.3555,12.004 C19.272,12.004 19.1875,12.0035 19.0945,12.0025 L18.2805,11.998 L18.2805,12.003 C17.778,11.9975 17.317,11.98 16.9065,11.95 C13.4915,11.6995 9.746,10.704 7.806,10.1285 C9.593,9.187 13.319,7.6025 18.2805,7.518 L18.2805,7.5465 L18.9865,7.522 L19.7195,7.536 L19.7195,7.5175 C24.451,7.5985 28.0685,9.0505 29.9425,10.0005 L20.938,10.0005 L20.938,10 Z M32.383,10 L32.086,9.7915 C31.881,9.6475 26.9785,6.2635 19.3065,6.2635 C19.2475,6.2635 19.188,6.265 19.1285,6.267 L19,6.2715 L18.9835,6.271 L18.9795,6.271 L18.863,6.2675 C18.8065,6.2655 18.75,6.264 18.694,6.264 C11.022,6.264 6.1195,9.6485 5.914,9.7925 L4.908,10.5 L6.072,10.896 C6.3035,10.975 11.798,12.8285 16.815,13.1965 C17.3455,13.2355 17.951,13.255 18.6155,13.255 L19.001,13.253 L19.356,13.2545 C19.4525,13.2545 19.5485,13.254 19.644,13.253 C19.6405,13.268 19.6385,13.2835 19.635,13.2985 C19.604,13.443 19.576,13.589 19.551,13.735 C19.538,13.81 19.5265,13.8855 19.515,13.961 C19.497,14.082 19.4795,14.2035 19.4655,14.3255 C19.452,14.4405 19.4425,14.5555 19.4325,14.6705 C19.425,14.7615 19.4155,14.8525 19.4105,14.9435 C19.398,15.1565 19.39,15.37 19.39,15.5835 C19.39,15.7365 19.3935,15.8885 19.3995,16.04 C19.4035,16.14 19.411,16.2395 19.4175,16.339 C19.4205,16.3875 19.4225,16.437 19.4265,16.4855 C19.4365,16.608 19.4495,16.7295 19.4635,16.851 C19.466,16.8755 19.468,16.9005 19.4715,16.9245 C19.4865,17.05 19.505,17.175 19.5245,17.2995 C19.5275,17.32 19.5305,17.3405 19.5335,17.361 C19.553,17.4805 19.5755,17.599 19.599,17.7175 C19.604,17.7445 19.609,17.771 19.6145,17.798 C19.6365,17.9055 19.661,18.0125 19.6865,18.1195 C19.696,18.1595 19.705,18.199 19.715,18.2385 C19.738,18.3305 19.7625,18.4215 19.788,18.5125 C19.8045,18.5705 19.8205,18.6285 19.8375,18.686 C19.859,18.7585 19.8815,18.8305 19.9045,18.902 C19.93,18.9825 19.957,19.0625 19.9845,19.142 C19.994,19.17 20.0025,19.198 20.0125,19.2255 C19.692,19.2375 19.3845,19.246 19.085,19.2505 L18.9835,19.252 L18.9145,19.251 C17.0715,19.223 15.2745,19.0635 13.689,18.923 C13.2995,18.8885 12.9215,18.855 12.5575,18.8245 C10.2,18.6285 4.5515,12.6795 2.102,9.8755 C5.946,6.408 11.9645,1.551 13.9805,1.3705 C14.125,1.3575 14.2675,1.351 14.4045,1.351 C15.5805,1.351 16.3685,1.8345 17.2025,2.3465 C17.687,2.644 18.1885,2.9515 18.7765,3.1755 L18.9985,3.26 L19.2205,3.1755 C19.81,2.9515 20.3115,2.6435 20.797,2.3455 C21.631,1.8335 22.419,1.35 23.595,1.35 C23.732,1.35 23.8745,1.3565 24.0185,1.3695 C26.035,1.55 32.052,6.4065 35.896,9.8735 C35.837,9.9405 35.7725,10.0135 35.702,10.093 L35.65,10 L32.383,10 L32.383,10 Z" id="Shape"></path>
                </g>
            </g>
        </g>
    </g>
</svg>