<?xml version="1.0" encoding="utf-8"?>
<!-- Generator: Adobe Illustrator 19.1.1, SVG Export Plug-In . SVG Version: 6.00 Build 0)  -->
<svg version="1.1" id="Calque_1" xmlns="http://www.w3.org/2000/svg" xmlns:xlink="http://www.w3.org/1999/xlink" x="0px" y="0px"
	 viewBox="-1 2.4 76 76" style="enable-background:new -1 2.4 76 76;" xml:space="preserve">
<style type="text/css">
	.st0{fill:#DAB01F;}
</style>
<title>arrow copy 3</title>
<desc>Created with Sketch.</desc>
<g id="Web-design">
	<g id="Ressources" transform="translate(-135.000000, -1513.000000)">
		<g id="arrow-copy-3" transform="translate(135.000000, 1513.000000)">
			<g id="Group">
				<path id="Shape" class="st0" d="M37,2.6C16.2,2.6-0.7,19.5-0.7,40.4S16.2,78.1,37,78.1s37.8-16.9,37.8-37.8S57.9,2.6,37,2.6
					L37,2.6z M37,69.4c-7.1,0-13.8,3.9-19.3,0.2C8.2,63.3,2,52.6,2,40.4c0-19.3,15.7-35,35-35s35,15.7,35,35
					c0,12.2-6.2,22.9-15.7,29.2C50.8,73.2,44.2,69.4,37,69.4L37,69.4z"/>
				<polygon id="Shape_1_" class="st0" points="29.4,40.4 42,53 44.1,50.8 33.7,40.4 44.6,29.4 42.5,27.3 31.5,38.2 31.5,38.2 				
					"/>
			</g>
		</g>
	</g>
</g>
</svg>
