<?xml version="1.0" encoding="UTF-8" standalone="no"?>
<svg width="76px" height="76px" viewBox="0 0 76 76" version="1.1" xmlns="http://www.w3.org/2000/svg" xmlns:xlink="http://www.w3.org/1999/xlink">
    <!-- Generator: Sketch 40.2 (33826) - http://www.bohemiancoding.com/sketch -->
    <title>arrow copy 3</title>
    <desc>Created with Sketch.</desc>
    <defs></defs>
    <g id="Web-design" stroke="none" stroke-width="1" fill="none" fill-rule="evenodd">
        <g id="Ressources" transform="translate(-135.000000, -1513.000000)" fill="#DAB01F">
            <g id="arrow-copy-3" transform="translate(135.000000, 1513.000000)">
                <g id="Group">
                    <path d="M38.01,0.25 C17.161,0.25 0.26,17.151 0.26,38 C0.26,58.849 17.161,75.75 38.01,75.75 C58.859,75.75 75.76,58.849 75.76,38 C75.76,17.151 58.858,0.25 38.01,0.25 L38.01,0.25 Z M38.01,67 C30.864,67 24.219,70.858 18.681,67.183 C9.236,60.915 3.01,50.185 3.01,38 C3.01,18.67 18.68,3 38.01,3 C57.34,3 73.01,18.67 73.01,38 C73.01,50.191 66.778,60.926 57.324,67.192 C51.788,70.862 45.148,67 38.01,67 L38.01,67 Z" id="Shape"></path>
                    <polygon id="Shape" points="43.49 35.878 43.49 35.878 32.53 24.918 30.409 27.04 41.369 38 30.909 48.46 33.03 50.581 45.611 38"></polygon>
                </g>
            </g>
        </g>
    </g>
</svg>