<?xml version="1.0" encoding="UTF-8" standalone="no"?>
<svg width="36px" height="76px" viewBox="0 0 36 76" version="1.1" xmlns="http://www.w3.org/2000/svg" xmlns:xlink="http://www.w3.org/1999/xlink">
    <!-- Generator: Sketch 41 (35326) - http://www.bohemiancoding.com/sketch -->
    <title>noun_688144_cc</title>
    <desc>Created with Sketch.</desc>
    <defs></defs>
    <g id="Web-design" stroke="none" stroke-width="1" fill="none" fill-rule="evenodd">
        <g id="Ressources" transform="translate(-500.000000, -723.000000)" fill="#DAB01F">
            <g id="noun_688144_cc" transform="translate(500.000000, 722.000000)">
                <g id="Group">
                    <g transform="translate(0.000000, 0.637820)" id="Shape">
                        <path d="M18.689735,76.1129 L35.689685,60.1128 C36.093885,59.7255 36.096785,59.0636 35.736685,58.6907 C35.370785,58.3117 34.699085,58.2839 34.314585,58.6437 L19.002135,73.05 L19.002135,1.36229 C19.002135,0.80999 18.554435,0.36229 18.002135,0.36229 C17.449835,0.36229 17.002135,0.80999 17.002135,1.36229 L17.002135,73.05 L1.689635,58.6437 C1.305135,58.2836 0.627535,58.3058 0.267535,58.6907 C-0.092465,59.0753 -0.101365,59.6942 0.314535,60.1128 L17.314535,76.1129 C17.782535,76.4932 18.356135,76.3932 18.689735,76.1129 L18.689735,76.1129 Z"></path>
                    </g>
                </g>
            </g>
        </g>
    </g>
</svg>