<?xml version="1.0" encoding="UTF-8" standalone="no"?>
<svg width="76px" height="76px" viewBox="0 0 76 76" version="1.1" xmlns="http://www.w3.org/2000/svg" xmlns:xlink="http://www.w3.org/1999/xlink">
    <!-- Generator: Sketch 41 (35326) - http://www.bohemiancoding.com/sketch -->
    <title>Group</title>
    <desc>Created with Sketch.</desc>
    <defs></defs>
    <g id="Web-design" stroke="none" stroke-width="1" fill="none" fill-rule="evenodd">
        <g id="Ressources" transform="translate(-426.000000, -1004.000000)" fill="#DAB01F">
            <g id="noun_648413_cc" transform="translate(426.000000, 1004.000000)">
                <g id="Group">
                    <g>
                        <path d="M38.2,75.5 C17.5,75.5 0.7,58.7 0.7,38 C0.7,17.3 17.5,0.5 38.2,0.5 C58.9,0.5 75.7,17.3 75.7,38 C75.7,58.7 58.9,75.5 38.2,75.5 Z M38.2,3.6 C19.2,3.6 3.8,19 3.8,38 C3.8,57 19.2,72.4 38.2,72.4 C57.2,72.4 72.6,57 72.6,38 C72.5,19 57.1,3.6 38.2,3.6 Z" id="Shape"></path>
                        <g transform="translate(27.000000, 17.000000)">
                            <path d="M12.7,30.4 L9.6,30.4 L9.6,27.9 C9.6,24 11.7,20.3 15,18.4 C17.7,16.8 19.2,13.8 18.9,10.7 C18.5,7.1 15.6,4.2 12,3.8 C9.7,3.6 7.6,4.2 5.9,5.7 C4.2,7.2 3.3,9.3 3.3,11.5 L0.2,11.5 C0.2,8.4 1.5,5.4 3.8,3.4 C6.1,1.4 9.2,0.3 12.3,0.7 C17.3,1.3 21.4,5.3 21.9,10.3 C22.4,14.7 20.2,18.9 16.4,21 C14,22.4 12.5,24.9 12.5,27.8 L12.7,30.4 L12.7,30.4 Z" id="Shape"></path>
                            <circle id="Oval" cx="11.2" cy="38.2" r="3.1"></circle>
                        </g>
                    </g>
                </g>
            </g>
        </g>
    </g>
</svg>