<svg xmlns="http://www.w3.org/2000/svg" width="43" height="43" viewBox="0 0 43 43">
  <defs>
    <style>
      .cls-1 {
        fill: #fff;
        fill-rule: evenodd;
      }
    </style>
  </defs>
  <path id="Search" class="cls-1" d="M4914.44,2247.43a1.9,1.9,0,0,1-2.7,0l-11.35-11.35a17.51,17.51,0,1,1,2.7-2.71l11.35,11.36A1.919,1.919,0,0,1,4914.44,2247.43Zm-10.21-24.96a14.77,14.77,0,1,0-14.77,14.78A14.775,14.775,0,0,0,4904.23,2222.47Zm-14.77-9.41h0a9.4,9.4,0,0,0-9.4,9.41h-1.34a10.744,10.744,0,0,1,10.74-10.75h0v1.34Z" transform="translate(-4872 -2205)"/>
</svg>
